<svg xmlns="http://www.w3.org/2000/svg" viewBox="0 0 72.6 10.4"><path fill="#ff5c00" d="M.07 10.35a.21.21 0 0 1-.07-.17v-.59a.22.22 0 0 1 .07-.17.21.21 0 0 1 .17-.07H.5a.64.64 0 0 0 .57-.22 1.18 1.18 0 0 0 .14-.63V3.56a.24.24 0 0 1 .07-.18.25.25 0 0 1 .17-.06h.88a.24.24 0 0 1 .17.06.24.24 0 0 1 .07.18v5a1.87 1.87 0 0 1-.49 1.39 2 2 0 0 1-1.45.5H.24a.21.21 0 0 1-.17-.1zM1.23 2.4a.22.22 0 0 1-.07-.17V1.5a.22.22 0 0 1 .07-.17.2.2 0 0 1 .17-.08h1a.22.22 0 0 1 .17.07.24.24 0 0 1 .07.18v.73a.24.24 0 0 1-.24.24h-1a.22.22 0 0 1-.17-.07zM4.38 8a2.56 2.56 0 0 1-.7-1.82v-.27a2.81 2.81 0 0 1 .66-2 2.31 2.31 0 0 1 1.81-.72A2.37 2.37 0 0 1 8 3.94a2.77 2.77 0 0 1 .64 1.92v.21a.22.22 0 0 1-.07.17.24.24 0 0 1-.18.07H5.05v.08a1.52 1.52 0 0 0 .31.92.91.91 0 0 0 .78.37 1.12 1.12 0 0 0 .93-.46.88.88 0 0 1 .14-.14h1.05a.3.3 0 0 1 .16.05.17.17 0 0 1 .06.14.89.89 0 0 1-.28.56 2.48 2.48 0 0 1-.82.57 2.93 2.93 0 0 1-1.23.24A2.39 2.39 0 0 1 4.38 8zm2.86-2.54A1.45 1.45 0 0 0 7 4.5a1 1 0 0 0-.81-.36 1 1 0 0 0-.8.36 1.45 1.45 0 0 0-.29.94zm3.15 2.93a2 2 0 0 1-.76-.54.88.88 0 0 1-.24-.52.19.19 0 0 1 .07-.16.2.2 0 0 1 .15-.06h.82a.19.19 0 0 1 .14.08l.22.19a1.38 1.38 0 0 0 .41.24 1.48 1.48 0 0 0 .49.08 1.16 1.16 0 0 0 .65-.16.48.48 0 0 0 .25-.44.52.52 0 0 0-.11-.33 1.3 1.3 0 0 0-.42-.23 8.6 8.6 0 0 0-.88-.23 2.69 2.69 0 0 1-1.26-.55 1.3 1.3 0 0 1-.4-1A1.34 1.34 0 0 1 9.76 4a1.78 1.78 0 0 1 .72-.58 2.59 2.59 0 0 1 1.13-.22 3 3 0 0 1 1.17.21 2.06 2.06 0 0 1 .74.52.84.84 0 0 1 .26.53.24.24 0 0 1-.22.22h-.75a.21.21 0 0 1-.17-.08 2.13 2.13 0 0 1-.22-.19 1.2 1.2 0 0 0-.81-.29.86.86 0 0 0-.61.18.53.53 0 0 0-.2.42.44.44 0 0 0 .1.3 1 1 0 0 0 .38.23 7 7 0 0 0 .87.21c1.2.23 1.8.76 1.8 1.57a1.35 1.35 0 0 1-.61 1.15 3 3 0 0 1-1.72.44 3.13 3.13 0 0 1-1.23-.23zM16 8a1.9 1.9 0 0 1-.46-1.39V4.39h-.79a.24.24 0 0 1-.24-.24v-.59a.24.24 0 0 1 .24-.24h.79V1.66a.24.24 0 0 1 .07-.18.25.25 0 0 1 .17-.06h.83a.28.28 0 0 1 .18.06.28.28 0 0 1 .06.18v1.66h1.25a.24.24 0 0 1 .24.24v.59a.24.24 0 0 1-.24.24h-1.27v2.15a1.16 1.16 0 0 0 .15.65.54.54 0 0 0 .49.22h.7a.24.24 0 0 1 .17.06.24.24 0 0 1 .07.18v.63a.22.22 0 0 1-.07.17.21.21 0 0 1-.17.07h-.82A1.81 1.81 0 0 1 16 8zm3.77 0a2.6 2.6 0 0 1-.69-1.82v-.27a2.85 2.85 0 0 1 .65-2 2.35 2.35 0 0 1 1.82-.72 2.37 2.37 0 0 1 1.84.72A2.82 2.82 0 0 1 24 5.86v.21a.22.22 0 0 1-.07.17.24.24 0 0 1-.18.07h-3.3v.08a1.51 1.51 0 0 0 .3.92.94.94 0 0 0 .79.37 1.12 1.12 0 0 0 .93-.46.88.88 0 0 1 .14-.14h1.05a.25.25 0 0 1 .15.05.15.15 0 0 1 .07.14.87.87 0 0 1-.29.56 2.33 2.33 0 0 1-.81.57 2.93 2.93 0 0 1-1.23.24A2.43 2.43 0 0 1 19.77 8zm2.87-2.52a1.4 1.4 0 0 0-.3-.94 1.07 1.07 0 0 0-1.6 0 1.45 1.45 0 0 0-.29.94zm3.15 2.91a1.86 1.86 0 0 1-.79-.54.85.85 0 0 1-.25-.52.21.21 0 0 1 .06-.16.25.25 0 0 1 .19-.06h.82a.19.19 0 0 1 .14.08l.22.19a1.47 1.47 0 0 0 .4.24 1.64 1.64 0 0 0 .5.08 1.16 1.16 0 0 0 .65-.16.48.48 0 0 0 .27-.44.52.52 0 0 0-.11-.33 1.3 1.3 0 0 0-.42-.23 8.6 8.6 0 0 0-.88-.23 2.56 2.56 0 0 1-1.25-.55 1.23 1.23 0 0 1-.41-1 1.34 1.34 0 0 1 .23-.76 1.78 1.78 0 0 1 .72-.58 2.59 2.59 0 0 1 1.12-.2 3 3 0 0 1 1.17.21 2.06 2.06 0 0 1 .74.52.89.89 0 0 1 .26.53.2.2 0 0 1-.06.15.21.21 0 0 1-.11.07h-.75a.21.21 0 0 1-.25-.08c-.05 0-.12-.1-.23-.19a1.08 1.08 0 0 0-.34-.21 1.26 1.26 0 0 0-.43-.08.86.86 0 0 0-.57.16.53.53 0 0 0-.2.42.49.49 0 0 0 .09.3 1.1 1.1 0 0 0 .39.23 7 7 0 0 0 .87.21c1.2.23 1.8.76 1.8 1.57a1.36 1.36 0 0 1-.62 1.15 2.9 2.9 0 0 1-1.71.44 3.13 3.13 0 0 1-1.26-.23zm.59-6a.19.19 0 0 1 .05-.13l.82-1a.73.73 0 0 1 .17-.15.35.35 0 0 1 .2 0h1a.2.2 0 0 1 .14 0 .25.25 0 0 1 .05.15.17.17 0 0 1-.05.12l-1.25 1a.5.5 0 0 1-.17.1.48.48 0 0 1-.18 0h-.63a.14.14 0 0 1-.15-.07z"/><path fill="#422779" d="M34.39 8.3a2.91 2.91 0 0 1-1.23-.88 2.12 2.12 0 0 1-.45-1.2.22.22 0 0 1 .08-.22.27.27 0 0 1 .21 0h1.59a.54.54 0 0 1 .24 0 .9.9 0 0 1 .2.17 1.15 1.15 0 0 0 .48.47 1.76 1.76 0 0 0 .89.19 2 2 0 0 0 1-.2.6.6 0 0 0 .35-.54.54.54 0 0 0-.18-.42 1.63 1.63 0 0 0-.57-.28c-.26-.08-.64-.17-1.14-.28a5 5 0 0 1-2.17-.87 2.07 2.07 0 0 1-.72-1.68 2.28 2.28 0 0 1 .41-1.33 2.74 2.74 0 0 1 1.14-.91A4.62 4.62 0 0 1 36.29 0a4.18 4.18 0 0 1 1.83.37 3 3 0 0 1 1.19.91 2 2 0 0 1 .44 1.07.27.27 0 0 1-.08.19.22.22 0 0 1-.18.08h-1.68a.46.46 0 0 1-.4-.22A.78.78 0 0 0 37 2a1.5 1.5 0 0 0-.74-.17 1.41 1.41 0 0 0-.78.18.61.61 0 0 0-.28.53.6.6 0 0 0 .36.54 5.21 5.21 0 0 0 1.35.41 7.08 7.08 0 0 1 1.82.51 2.22 2.22 0 0 1 1 .79A2.2 2.2 0 0 1 40 6a2.23 2.23 0 0 1-.46 1.41 3 3 0 0 1-1.3.92 5.27 5.27 0 0 1-1.89.32 5.14 5.14 0 0 1-1.96-.35zm6.75.13a.29.29 0 0 1-.09-.21V2.58a.29.29 0 0 1 .09-.22.32.32 0 0 1 .21-.08h1.4a.3.3 0 0 1 .21.08.29.29 0 0 1 .09.22V3a2.44 2.44 0 0 1 .74-.59 2.17 2.17 0 0 1 1-.24 1.81 1.81 0 0 1 1.81 1 2.34 2.34 0 0 1 1.91-1 2.06 2.06 0 0 1 1.6.67 2.77 2.77 0 0 1 .62 2v3.38a.32.32 0 0 1-.08.21.29.29 0 0 1-.22.09H49a.36.36 0 0 1-.23-.08.29.29 0 0 1-.09-.22V4.9a1.15 1.15 0 0 0-.23-.81.79.79 0 0 0-.63-.26.77.77 0 0 0-.61.26 1.21 1.21 0 0 0-.21.81v3.32a.32.32 0 0 1-.08.21.29.29 0 0 1-.22.09h-1.51a.35.35 0 0 1-.19-.08.29.29 0 0 1-.09-.22V4.9a1.15 1.15 0 0 0-.24-.81.79.79 0 0 0-.67-.26.77.77 0 0 0-.61.26 1.11 1.11 0 0 0-.24.79v3.34a.29.29 0 0 1-.09.21.27.27 0 0 1-.21.09h-1.5a.29.29 0 0 1-.21-.09zm11.66-.04a2 2 0 0 1-.8-.67 1.64 1.64 0 0 1-.29-1 1.58 1.58 0 0 1 .67-1.33 4.28 4.28 0 0 1 1.87-.7l1.49-.23v-.09a1 1 0 0 0-.18-.65.77.77 0 0 0-.61-.2.86.86 0 0 0-.41.08 2.66 2.66 0 0 0-.36.25 1.54 1.54 0 0 1-.28.19.14.14 0 0 1-.12.09h-1.41a.28.28 0 0 1-.2-.08.21.21 0 0 1-.06-.19 1.25 1.25 0 0 1 .32-.72 2.39 2.39 0 0 1 1-.69A3.83 3.83 0 0 1 55 2.16a3.24 3.24 0 0 1 2.21.65 2.28 2.28 0 0 1 .72 1.77v3.64a.29.29 0 0 1-.09.21.26.26 0 0 1-.21.09H56.1a.31.31 0 0 1-.3-.3V7.8a1.93 1.93 0 0 1-.73.61 2.8 2.8 0 0 1-2.27 0zm2.61-1.51a1.43 1.43 0 0 0 .33-1v-.16l-1 .17c-.68.13-1 .37-1 .72a.55.55 0 0 0 .23.45 1 1 0 0 0 .58.16 1.12 1.12 0 0 0 .86-.34zm3.87 1.55a.29.29 0 0 1-.09-.21V2.59a.29.29 0 0 1 .08-.22.29.29 0 0 1 .22-.09H61a.31.31 0 0 1 .31.31v.46a2.31 2.31 0 0 1 .79-.57 2.48 2.48 0 0 1 1-.2h.54a.33.33 0 0 1 .22.08.33.33 0 0 1 .08.22v1.31a.32.32 0 0 1-.08.21.29.29 0 0 1-.22.09h-1.26a1 1 0 0 0-.74.26 1.05 1.05 0 0 0-.26.75v3a.29.29 0 0 1-.09.22.33.33 0 0 1-.22.08h-1.58a.29.29 0 0 1-.21-.07zm6.17-2.3V3.91h-1a.31.31 0 0 1-.3-.3v-1a.29.29 0 0 1 .09-.22.32.32 0 0 1 .21-.08h1V.3a.29.29 0 0 1 .09-.22.32.32 0 0 1 .21-.08h1.48a.3.3 0 0 1 .21.08.29.29 0 0 1 .09.22v2H69a.35.35 0 0 1 .22.08.29.29 0 0 1 .09.22v1a.29.29 0 0 1-.09.22.35.35 0 0 1-.22.08h-1.5V6a1.14 1.14 0 0 0 .15.64.6.6 0 0 0 .51.21h.94a.29.29 0 0 1 .22.09.31.31 0 0 1 .08.23v1.1a.28.28 0 0 1-.08.21.29.29 0 0 1-.22.09H68c-1.7-.05-2.55-.85-2.55-2.44zm5.06 2.3a.29.29 0 0 1-.09-.21V6.67a.29.29 0 0 1 .09-.22.29.29 0 0 1 .21-.09h1.55a.29.29 0 0 1 .21.09.29.29 0 0 1 .09.22v1.55a.29.29 0 0 1-.09.21.27.27 0 0 1-.21.09h-1.55a.29.29 0 0 1-.21-.09zm0-2.71a.31.31 0 0 1-.09-.22V.42a.29.29 0 0 1 .12-.22.36.36 0 0 1 .23-.08h1.45a.33.33 0 0 1 .22.08.29.29 0 0 1 .09.22V5.5a.31.31 0 0 1-.09.22.29.29 0 0 1-.22.09h-1.45a.32.32 0 0 1-.23-.09z"/></svg>